<svg width="24" height="24" viewBox="0 0 24 24" fill="none" xmlns="http://www.w3.org/2000/svg">
<rect x="1" y="1" width="22" height="22" rx="1" stroke="#4C7273" stroke-width="2"/>
<path d="M8.73023 20C8.55414 20 8.39007 19.957 8.23799 19.8711C8.08592 19.7852 7.96987 19.6641 7.88983 19.5078L6.01695 16.25H7.4096L8.37006 18.125H10.5791V17.1875H8.94633L7.98588 15.3125H5.4887L4.12006 12.9688C4.08804 12.8906 4.06003 12.8125 4.03602 12.7344C4.01201 12.6562 4 12.5781 4 12.5C4 12.4375 4.04002 12.2812 4.12006 12.0312L5.4887 9.6875H7.98588L8.94633 7.8125H10.5791V6.875H8.37006L7.4096 8.75H6.01695L7.88983 5.49219C7.96987 5.33594 8.08592 5.21484 8.23799 5.12891C8.39007 5.04297 8.55414 5 8.73023 5H11.0593C11.3314 5 11.5596 5.08984 11.7436 5.26953C11.9277 5.44922 12.0198 5.67188 12.0198 5.9375V9.6875H10.5791L9.61864 10.625H12.0198V13.4375H9.90678L8.94633 11.5625H6.73729L5.77684 12.5H8.37006L9.33051 14.375H12.0198V19.0625C12.0198 19.3281 11.9277 19.5508 11.7436 19.7305C11.5596 19.9102 11.3314 20 11.0593 20H8.73023ZM13.9407 20C13.6685 20 13.4404 19.9102 13.2564 19.7305C13.0723 19.5508 12.9802 19.3281 12.9802 19.0625V14.375H15.6695L16.6299 12.5H19.2232L18.2627 11.5625H16.0537L15.0932 13.4375H12.9802V10.625H15.3814L14.4209 9.6875H12.9802V5.9375C12.9802 5.67188 13.0723 5.44922 13.2564 5.26953C13.4404 5.08984 13.6685 5 13.9407 5H16.2698C16.4459 5 16.6099 5.04297 16.762 5.12891C16.9141 5.21484 17.0301 5.33594 17.1102 5.49219L18.9831 8.75H17.5904L16.6299 6.875H14.4209V7.8125H16.0537L17.0141 9.6875H19.5113L20.8799 12.0312C20.912 12.1094 20.94 12.1875 20.964 12.2656C20.988 12.3438 21 12.4219 21 12.5C21 12.5625 20.96 12.7188 20.8799 12.9688L19.5113 15.3125H17.0141L16.0537 17.1875H14.4209V18.125H16.6299L17.5904 16.25H18.9831L17.1102 19.5078C17.0301 19.6641 16.9141 19.7852 16.762 19.8711C16.6099 19.957 16.4459 20 16.2698 20H13.9407Z" fill="#4C7273"/>
</svg>
