<svg width="29" height="29" viewBox="0 0 29 29" fill="none" xmlns="http://www.w3.org/2000/svg">
<path d="M9.66667 21.75H11.4792V19.3333H13.8958V17.5208H11.4792V15.1042H9.66667V17.5208H7.25V19.3333H9.66667V21.75ZM15.7083 20.8438H21.75V19.0312H15.7083V20.8438ZM15.7083 17.8229H21.75V16.0104H15.7083V17.8229ZM17.0375 13.2312L18.7292 11.5396L20.4208 13.2312L21.6896 11.9625L19.9979 10.2104L21.6896 8.51875L20.4208 7.25L18.7292 8.94167L17.0375 7.25L15.7687 8.51875L17.4604 10.2104L15.7687 11.9625L17.0375 13.2312ZM7.55208 11.1167H13.5938V9.30417H7.55208V11.1167ZM6.04167 25.375C5.37708 25.375 4.80816 25.1384 4.3349 24.6651C3.86163 24.1918 3.625 23.6229 3.625 22.9583V6.04167C3.625 5.37708 3.86163 4.80816 4.3349 4.3349C4.80816 3.86163 5.37708 3.625 6.04167 3.625H22.9583C23.6229 3.625 24.1918 3.86163 24.6651 4.3349C25.1384 4.80816 25.375 5.37708 25.375 6.04167V22.9583C25.375 23.6229 25.1384 24.1918 24.6651 24.6651C24.1918 25.1384 23.6229 25.375 22.9583 25.375H6.04167ZM6.04167 22.9583H22.9583V6.04167H6.04167V22.9583Z" fill="white"/>
</svg>
