<svg width="24" height="19" viewBox="0 0 24 19" fill="none" xmlns="http://www.w3.org/2000/svg">
<path d="M20.8496 16.4746H19.1504V8.78027L20.8496 7.43457V16.4746ZM16.8496 16.4746H15.1504V11.9668L16.8496 10.6211V16.4746ZM12.8496 11.9658V16.4746H11.1504V10.6045L12.8496 11.9658ZM8.84961 16.4746H7.15039V11.9463L8.84961 10.6016V16.4746ZM4.84961 16.4746H3.15039V15.1133L4.84961 13.7686V16.4746ZM20.8496 4.53906L13.999 9.96094L10.0928 6.86914L10 6.79492L9.90723 6.86914L3.15039 12.2168V10.3633L9.99902 4.94043L13.9072 8.03418L14 8.1084L14.0928 8.03418L20.8496 2.68457V4.53906Z" fill="white" stroke="white" stroke-width="0.3"/>
</svg>
