<svg width="168" height="48" viewBox="0 0 168 48" fill="none" xmlns="http://www.w3.org/2000/svg">
<path d="M0 48V35.2222H4.18182V42.8889H10.4545V48H0ZM35.5455 48V42.8889H41.8182V35.2222H46V48H35.5455ZM6.27273 40.3333V9.66667H10.4545V40.3333H6.27273ZM12.5455 40.3333V9.66667H14.6364V40.3333H12.5455ZM18.8182 40.3333V9.66667H23V40.3333H18.8182ZM25.0909 40.3333V9.66667H31.3636V40.3333H25.0909ZM33.4545 40.3333V9.66667H35.5455V40.3333H33.4545ZM37.6364 40.3333V9.66667H39.7273V40.3333H37.6364ZM0 14.7778V2H10.4545V7.11111H4.18182V14.7778H0ZM41.8182 14.7778V7.11111H35.5455V2H46V14.7778H41.8182Z" fill="white"/>
<path d="M70.304 35.224C67.68 35.224 65.5253 34.6053 63.84 33.368C62.1547 32.1093 61.248 30.3173 61.12 27.992H67.808C67.872 28.7813 68.1067 29.3573 68.512 29.72C68.9173 30.0827 69.44 30.264 70.08 30.264C70.656 30.264 71.1253 30.1253 71.488 29.848C71.872 29.5493 72.064 29.144 72.064 28.632C72.064 27.9707 71.7547 27.4587 71.136 27.096C70.5173 26.7333 69.5147 26.328 68.128 25.88C66.656 25.3893 65.4613 24.92 64.544 24.472C63.648 24.0027 62.8587 23.3307 62.176 22.456C61.5147 21.56 61.184 20.3973 61.184 18.968C61.184 17.5173 61.5467 16.28 62.272 15.256C62.9973 14.2107 64 13.4213 65.28 12.888C66.56 12.3547 68.0107 12.088 69.632 12.088C72.256 12.088 74.3467 12.7067 75.904 13.944C77.4827 15.16 78.3253 16.8773 78.432 19.096H71.616C71.5947 18.4133 71.3813 17.9013 70.976 17.56C70.592 17.2187 70.0907 17.048 69.472 17.048C69.0027 17.048 68.6187 17.1867 68.32 17.464C68.0213 17.7413 67.872 18.136 67.872 18.648C67.872 19.0747 68.032 19.448 68.352 19.768C68.6933 20.0667 69.1093 20.3333 69.6 20.568C70.0907 20.7813 70.816 21.0587 71.776 21.4C73.2053 21.8907 74.3787 22.3813 75.296 22.872C76.2347 23.3413 77.0347 24.0133 77.696 24.888C78.3787 25.7413 78.72 26.8293 78.72 28.152C78.72 29.496 78.3787 30.7013 77.696 31.768C77.0347 32.8347 76.064 33.6773 74.784 34.296C73.5253 34.9147 72.032 35.224 70.304 35.224ZM90.1478 35.224C87.5238 35.224 85.3691 34.6053 83.6838 33.368C81.9984 32.1093 81.0918 30.3173 80.9638 27.992H87.6518C87.7158 28.7813 87.9504 29.3573 88.3558 29.72C88.7611 30.0827 89.2838 30.264 89.9238 30.264C90.4998 30.264 90.9691 30.1253 91.3318 29.848C91.7158 29.5493 91.9078 29.144 91.9078 28.632C91.9078 27.9707 91.5984 27.4587 90.9798 27.096C90.3611 26.7333 89.3584 26.328 87.9718 25.88C86.4998 25.3893 85.3051 24.92 84.3878 24.472C83.4918 24.0027 82.7024 23.3307 82.0198 22.456C81.3584 21.56 81.0278 20.3973 81.0278 18.968C81.0278 17.5173 81.3904 16.28 82.1158 15.256C82.8411 14.2107 83.8438 13.4213 85.1238 12.888C86.4038 12.3547 87.8544 12.088 89.4758 12.088C92.0998 12.088 94.1904 12.7067 95.7478 13.944C97.3264 15.16 98.1691 16.8773 98.2758 19.096H91.4598C91.4384 18.4133 91.2251 17.9013 90.8198 17.56C90.4358 17.2187 89.9344 17.048 89.3158 17.048C88.8464 17.048 88.4624 17.1867 88.1638 17.464C87.8651 17.7413 87.7158 18.136 87.7158 18.648C87.7158 19.0747 87.8758 19.448 88.1958 19.768C88.5371 20.0667 88.9531 20.3333 89.4438 20.568C89.9344 20.7813 90.6598 21.0587 91.6198 21.4C93.0491 21.8907 94.2224 22.3813 95.1398 22.872C96.0784 23.3413 96.8784 24.0133 97.5398 24.888C98.2224 25.7413 98.5638 26.8293 98.5638 28.152C98.5638 29.496 98.2224 30.7013 97.5398 31.768C96.8784 32.8347 95.9078 33.6773 94.6278 34.296C93.3691 34.9147 91.8758 35.224 90.1478 35.224ZM112.072 29.656V35H109.352C104.765 35 102.472 32.728 102.472 28.184V22.264H100.264V17.048H102.472V12.696H108.776V17.048H112.04V22.264H108.776V28.28C108.776 28.7707 108.882 29.1227 109.095 29.336C109.33 29.5493 109.714 29.656 110.248 29.656H112.072ZM123.3 35.224C121.508 35.224 119.898 34.8507 118.468 34.104C117.06 33.3573 115.951 32.2907 115.14 30.904C114.33 29.5173 113.924 27.8853 113.924 26.008C113.924 24.152 114.33 22.5307 115.14 21.144C115.972 19.7573 117.092 18.6907 118.5 17.944C119.93 17.1973 121.54 16.824 123.332 16.824C125.124 16.824 126.724 17.1973 128.132 17.944C129.562 18.6907 130.682 19.7573 131.492 21.144C132.324 22.5307 132.74 24.152 132.74 26.008C132.74 27.864 132.324 29.496 131.492 30.904C130.682 32.2907 129.562 33.3573 128.132 34.104C126.703 34.8507 125.092 35.224 123.3 35.224ZM123.3 29.784C124.175 29.784 124.9 29.464 125.476 28.824C126.074 28.1627 126.372 27.224 126.372 26.008C126.372 24.792 126.074 23.864 125.476 23.224C124.9 22.584 124.186 22.264 123.332 22.264C122.479 22.264 121.764 22.584 121.188 23.224C120.612 23.864 120.324 24.792 120.324 26.008C120.324 27.2453 120.602 28.184 121.156 28.824C121.711 29.464 122.426 29.784 123.3 29.784ZM141.564 20.216C142.268 19.192 143.121 18.3813 144.124 17.784C145.127 17.1867 146.204 16.888 147.356 16.888V23.576H145.596C144.231 23.576 143.217 23.8427 142.556 24.376C141.895 24.9093 141.564 25.8373 141.564 27.16V35H135.292V17.048H141.564V20.216ZM166.757 25.816C166.757 26.3067 166.725 26.7973 166.661 27.288H154.789C154.853 28.2693 155.119 29.0053 155.589 29.496C156.079 29.9653 156.698 30.2 157.445 30.2C158.49 30.2 159.237 29.7307 159.685 28.792H166.373C166.095 30.0293 165.551 31.1387 164.741 32.12C163.951 33.08 162.949 33.8373 161.733 34.392C160.517 34.9467 159.173 35.224 157.701 35.224C155.93 35.224 154.351 34.8507 152.965 34.104C151.599 33.3573 150.522 32.2907 149.733 30.904C148.965 29.5173 148.581 27.8853 148.581 26.008C148.581 24.1307 148.965 22.5093 149.733 21.144C150.501 19.7573 151.567 18.6907 152.933 17.944C154.319 17.1973 155.909 16.824 157.701 16.824C159.471 16.824 161.039 17.1867 162.405 17.912C163.77 18.6373 164.837 19.6827 165.605 21.048C166.373 22.392 166.757 23.9813 166.757 25.816ZM160.357 24.248C160.357 23.48 160.101 22.8827 159.589 22.456C159.077 22.008 158.437 21.784 157.669 21.784C156.901 21.784 156.271 21.9973 155.781 22.424C155.29 22.8293 154.97 23.4373 154.821 24.248H160.357Z" fill="white"/>
</svg>
