<svg width="27" height="27" viewBox="0 0 27 27" fill="none" xmlns="http://www.w3.org/2000/svg">
<path d="M5.625 24.75C5.00625 24.75 4.47656 24.5297 4.03594 24.0891C3.59531 23.6484 3.375 23.1188 3.375 22.5V9.81563C3.0375 9.60938 2.76563 9.34219 2.55938 9.01406C2.35313 8.68594 2.25 8.30625 2.25 7.875V4.5C2.25 3.88125 2.47031 3.35156 2.91094 2.91094C3.35156 2.47031 3.88125 2.25 4.5 2.25H22.5C23.1188 2.25 23.6484 2.47031 24.0891 2.91094C24.5297 3.35156 24.75 3.88125 24.75 4.5V7.875C24.75 8.30625 24.6469 8.68594 24.4406 9.01406C24.2344 9.34219 23.9625 9.60938 23.625 9.81563V22.5C23.625 23.1188 23.4047 23.6484 22.9641 24.0891C22.5234 24.5297 21.9938 24.75 21.375 24.75H5.625ZM5.625 10.125V22.5H21.375V10.125H5.625ZM4.5 7.875H22.5V4.5H4.5V7.875ZM10.125 15.75H16.875V13.5H10.125V15.75Z" fill="white"/>
</svg>
