<svg width="163" height="48" viewBox="0 0 163 48" fill="none" xmlns="http://www.w3.org/2000/svg">
<path d="M0 48V35.2222H4.18182V42.8889H10.4545V48H0ZM35.5455 48V42.8889H41.8182V35.2222H46V48H35.5455ZM6.27273 40.3333V9.66667H10.4545V40.3333H6.27273ZM12.5455 40.3333V9.66667H14.6364V40.3333H12.5455ZM18.8182 40.3333V9.66667H23V40.3333H18.8182ZM25.0909 40.3333V9.66667H31.3636V40.3333H25.0909ZM33.4545 40.3333V9.66667H35.5455V40.3333H33.4545ZM37.6364 40.3333V9.66667H39.7273V40.3333H37.6364ZM0 14.7778V2H10.4545V7.11111H4.18182V14.7778H0ZM41.8182 14.7778V7.11111H35.5455V2H46V14.7778H41.8182Z" fill="white"/>
<path d="M69.728 35.224C68.2347 35.224 66.8907 34.968 65.696 34.456C64.5013 33.9227 63.5627 33.176 62.88 32.216C62.1973 31.256 61.856 30.136 61.856 28.856H65.76C65.8453 29.816 66.2187 30.6053 66.88 31.224C67.5627 31.8427 68.512 32.152 69.728 32.152C70.9867 32.152 71.968 31.8533 72.672 31.256C73.376 30.6373 73.728 29.848 73.728 28.888C73.728 28.1413 73.504 27.5333 73.056 27.064C72.6293 26.5947 72.0853 26.232 71.424 25.976C70.784 25.72 69.888 25.4427 68.736 25.144C67.2853 24.76 66.1013 24.376 65.184 23.992C64.288 23.5867 63.52 22.968 62.88 22.136C62.24 21.304 61.92 20.1947 61.92 18.808C61.92 17.528 62.24 16.408 62.88 15.448C63.52 14.488 64.416 13.752 65.568 13.24C66.72 12.728 68.0533 12.472 69.568 12.472C71.7227 12.472 73.4827 13.016 74.848 14.104C76.2347 15.1707 77.0027 16.6427 77.152 18.52H73.12C73.056 17.7093 72.672 17.016 71.968 16.44C71.264 15.864 70.336 15.576 69.184 15.576C68.1387 15.576 67.2853 15.8427 66.624 16.376C65.9627 16.9093 65.632 17.6773 65.632 18.68C65.632 19.3627 65.8347 19.928 66.24 20.376C66.6667 20.8027 67.2 21.144 67.84 21.4C68.48 21.656 69.3547 21.9333 70.464 22.232C71.936 22.6373 73.1307 23.0427 74.048 23.448C74.9867 23.8533 75.776 24.4827 76.416 25.336C77.0773 26.168 77.408 27.288 77.408 28.696C77.408 29.8267 77.0987 30.8933 76.48 31.896C75.8827 32.8987 74.9973 33.7093 73.824 34.328C72.672 34.9253 71.3067 35.224 69.728 35.224ZM89.0405 35.224C87.5472 35.224 86.2032 34.968 85.0085 34.456C83.8138 33.9227 82.8752 33.176 82.1925 32.216C81.5098 31.256 81.1685 30.136 81.1685 28.856H85.0725C85.1578 29.816 85.5312 30.6053 86.1925 31.224C86.8752 31.8427 87.8245 32.152 89.0405 32.152C90.2992 32.152 91.2805 31.8533 91.9845 31.256C92.6885 30.6373 93.0405 29.848 93.0405 28.888C93.0405 28.1413 92.8165 27.5333 92.3685 27.064C91.9418 26.5947 91.3978 26.232 90.7365 25.976C90.0965 25.72 89.2005 25.4427 88.0485 25.144C86.5978 24.76 85.4138 24.376 84.4965 23.992C83.6005 23.5867 82.8325 22.968 82.1925 22.136C81.5525 21.304 81.2325 20.1947 81.2325 18.808C81.2325 17.528 81.5525 16.408 82.1925 15.448C82.8325 14.488 83.7285 13.752 84.8805 13.24C86.0325 12.728 87.3658 12.472 88.8805 12.472C91.0352 12.472 92.7952 13.016 94.1605 14.104C95.5472 15.1707 96.3152 16.6427 96.4645 18.52H92.4325C92.3685 17.7093 91.9845 17.016 91.2805 16.44C90.5765 15.864 89.6485 15.576 88.4965 15.576C87.4512 15.576 86.5978 15.8427 85.9365 16.376C85.2752 16.9093 84.9445 17.6773 84.9445 18.68C84.9445 19.3627 85.1472 19.928 85.5525 20.376C85.9792 20.8027 86.5125 21.144 87.1525 21.4C87.7925 21.656 88.6672 21.9333 89.7765 22.232C91.2485 22.6373 92.4432 23.0427 93.3605 23.448C94.2992 23.8533 95.0885 24.4827 95.7285 25.336C96.3898 26.168 96.7205 27.288 96.7205 28.696C96.7205 29.8267 96.4112 30.8933 95.7925 31.896C95.1952 32.8987 94.3098 33.7093 93.1365 34.328C91.9845 34.9253 90.6192 35.224 89.0405 35.224ZM105.281 20.344V30.104C105.281 30.7653 105.43 31.2453 105.729 31.544C106.049 31.8213 106.582 31.96 107.329 31.96H109.569V35H106.689C105.046 35 103.788 34.616 102.913 33.848C102.038 33.08 101.601 31.832 101.601 30.104V20.344H99.521V17.368H101.601V12.984H105.281V17.368H109.569V20.344H105.281ZM120.579 35.288C118.915 35.288 117.411 34.9147 116.067 34.168C114.723 33.4 113.667 32.3333 112.899 30.968C112.131 29.5813 111.747 27.9813 111.747 26.168C111.747 24.376 112.142 22.7867 112.931 21.4C113.721 20.0133 114.798 18.9467 116.163 18.2C117.529 17.4533 119.054 17.08 120.739 17.08C122.425 17.08 123.95 17.4533 125.315 18.2C126.681 18.9467 127.758 20.0133 128.547 21.4C129.337 22.7867 129.731 24.376 129.731 26.168C129.731 27.96 129.326 29.5493 128.515 30.936C127.705 32.3227 126.595 33.4 125.187 34.168C123.801 34.9147 122.265 35.288 120.579 35.288ZM120.579 32.12C121.518 32.12 122.393 31.896 123.203 31.448C124.035 31 124.707 30.328 125.219 29.432C125.731 28.536 125.987 27.448 125.987 26.168C125.987 24.888 125.742 23.8107 125.251 22.936C124.761 22.04 124.11 21.368 123.299 20.92C122.489 20.472 121.614 20.248 120.675 20.248C119.737 20.248 118.862 20.472 118.051 20.92C117.262 21.368 116.633 22.04 116.163 22.936C115.694 23.8107 115.459 24.888 115.459 26.168C115.459 28.0667 115.939 29.5387 116.899 30.584C117.881 31.608 119.107 32.12 120.579 32.12ZM136.986 19.928C137.519 19.032 138.223 18.3387 139.098 17.848C139.994 17.336 141.05 17.08 142.266 17.08V20.856H141.338C139.908 20.856 138.82 21.2187 138.074 21.944C137.348 22.6693 136.986 23.928 136.986 25.72V35H133.338V17.368H136.986V19.928ZM161.779 25.752C161.779 26.4133 161.736 27.0107 161.651 27.544H148.179C148.285 28.952 148.808 30.0827 149.747 30.936C150.685 31.7893 151.837 32.216 153.203 32.216C155.165 32.216 156.552 31.3947 157.363 29.752H161.299C160.765 31.3733 159.795 32.7067 158.387 33.752C157 34.776 155.272 35.288 153.203 35.288C151.517 35.288 150.003 34.9147 148.659 34.168C147.336 33.4 146.291 32.3333 145.523 30.968C144.776 29.5813 144.403 27.9813 144.403 26.168C144.403 24.3547 144.765 22.7653 145.491 21.4C146.237 20.0133 147.272 18.9467 148.595 18.2C149.939 17.4533 151.475 17.08 153.203 17.08C154.867 17.08 156.349 17.4427 157.651 18.168C158.952 18.8933 159.965 19.9173 160.691 21.24C161.416 22.5413 161.779 24.0453 161.779 25.752ZM157.971 24.6C157.949 23.256 157.469 22.1787 156.531 21.368C155.592 20.5573 154.429 20.152 153.043 20.152C151.784 20.152 150.707 20.5573 149.811 21.368C148.915 22.1573 148.381 23.2347 148.211 24.6H157.971Z" fill="white"/>
</svg>
