<svg width="80" height="80" viewBox="0 0 80 80" fill="none" xmlns="http://www.w3.org/2000/svg">
<rect width="80" height="80" rx="16" fill="#041421"/>
<path d="M17 63V50.2222H21.1818V57.8889H27.4545V63H17ZM52.5455 63V57.8889H58.8182V50.2222H63V63H52.5455ZM23.2727 55.3333V24.6667H27.4545V55.3333H23.2727ZM29.5455 55.3333V24.6667H31.6364V55.3333H29.5455ZM35.8182 55.3333V24.6667H40V55.3333H35.8182ZM42.0909 55.3333V24.6667H48.3636V55.3333H42.0909ZM50.4545 55.3333V24.6667H52.5455V55.3333H50.4545ZM54.6364 55.3333V24.6667H56.7273V55.3333H54.6364ZM17 29.7778V17H27.4545V22.1111H21.1818V29.7778H17ZM58.8182 29.7778V22.1111H52.5455V17H63V29.7778H58.8182Z" fill="white"/>
</svg>
