<svg width="1381" height="219" viewBox="0 0 1381 219" fill="none" xmlns="http://www.w3.org/2000/svg">
<g opacity="0.28">
<mask id="path-1-outside-1_3_59" maskUnits="userSpaceOnUse" x="0" y="0" width="1381" height="219" fill="black">
<rect fill="white" width="1381" height="219"/>
<path d="M83.8 217.1C68.4 217.1 54.6 214.6 42.4 209.6C30.2 204.6 20.4 197.2 13 187.4C5.8 177.6 2 165.8 1.6 152H56.2C57 159.8 59.7 165.8 64.3 170C68.9 174 74.9 176 82.3 176C89.9 176 95.9 174.3 100.3 170.9C104.7 167.3 106.9 162.4 106.9 156.2C106.9 151 105.1 146.7 101.5 143.3C98.1 139.9 93.8 137.1 88.6 134.9C83.6 132.7 76.4 130.2 67 127.4C53.4 123.2 42.3 119 33.7 114.8C25.1 110.6 17.7 104.4 11.5 96.2C5.3 88 2.2 77.3 2.2 64.1C2.2 44.5 9.3 29.2 23.5 18.2C37.7 7 56.2 1.4 79 1.4C102.2 1.4 120.9 7 135.1 18.2C149.3 29.2 156.9 44.6 157.9 64.4H102.4C102 57.6 99.5 52.3 94.9 48.5C90.3 44.5 84.4 42.5 77.2 42.5C71 42.5 66 44.2 62.2 47.6C58.4 50.8 56.5 55.5 56.5 61.7C56.5 68.5 59.7 73.8 66.1 77.6C72.5 81.4 82.5 85.5 96.1 89.9C109.7 94.5 120.7 98.9 129.1 103.1C137.7 107.3 145.1 113.4 151.3 121.4C157.5 129.4 160.6 139.7 160.6 152.3C160.6 164.3 157.5 175.2 151.3 185C145.3 194.8 136.5 202.6 124.9 208.4C113.3 214.2 99.6 217.1 83.8 217.1ZM343.67 4.39999V45.5H287.87V215H236.57V45.5H180.77V4.39999H343.67ZM469.016 217.1C449.216 217.1 431.016 212.5 414.416 203.3C398.016 194.1 384.916 181.3 375.116 164.9C365.516 148.3 360.716 129.7 360.716 109.1C360.716 88.5 365.516 70 375.116 53.6C384.916 37.2 398.016 24.4 414.416 15.2C431.016 6 449.216 1.4 469.016 1.4C488.816 1.4 506.916 6 523.316 15.2C539.916 24.4 552.916 37.2 562.316 53.6C571.916 70 576.716 88.5 576.716 109.1C576.716 129.7 571.916 148.3 562.316 164.9C552.716 181.3 539.716 194.1 523.316 203.3C506.916 212.5 488.816 217.1 469.016 217.1ZM469.016 170.3C485.816 170.3 499.216 164.7 509.216 153.5C519.416 142.3 524.516 127.5 524.516 109.1C524.516 90.5 519.416 75.7 509.216 64.7C499.216 53.5 485.816 47.9 469.016 47.9C452.016 47.9 438.416 53.4 428.216 64.4C418.216 75.4 413.216 90.3 413.216 109.1C413.216 127.7 418.216 142.6 428.216 153.8C438.416 164.8 452.016 170.3 469.016 170.3ZM712.656 215L668.856 135.5H656.556V215H605.256V4.39999H691.356C707.956 4.39999 722.056 7.29999 733.656 13.1C745.456 18.9 754.256 26.9 760.056 37.1C765.856 47.1 768.756 58.3 768.756 70.7C768.756 84.7 764.756 97.2 756.756 108.2C748.956 119.2 737.356 127 721.956 131.6L770.556 215H712.656ZM656.556 99.2H688.356C697.756 99.2 704.756 96.9 709.356 92.3C714.156 87.7 716.556 81.2 716.556 72.8C716.556 64.8 714.156 58.5 709.356 53.9C704.756 49.3 697.756 47 688.356 47H656.556V99.2ZM932.059 177.8H853.459L840.859 215H787.159L863.359 4.39999H922.759L998.959 215H944.659L932.059 177.8ZM918.859 138.2L892.759 61.1L866.959 138.2H918.859ZM1161.95 71C1158.15 64 1152.65 58.7 1145.45 55.1C1138.45 51.3 1130.15 49.4 1120.55 49.4C1103.95 49.4 1090.65 54.9 1080.65 65.9C1070.65 76.7 1065.65 91.2 1065.65 109.4C1065.65 128.8 1070.85 144 1081.25 155C1091.85 165.8 1106.35 171.2 1124.75 171.2C1137.35 171.2 1147.95 168 1156.55 161.6C1165.35 155.2 1171.75 146 1175.75 134H1110.65V96.2H1222.25V143.9C1218.45 156.7 1211.95 168.6 1202.75 179.6C1193.75 190.6 1182.25 199.5 1168.25 206.3C1154.25 213.1 1138.45 216.5 1120.85 216.5C1100.05 216.5 1081.45 212 1065.05 203C1048.85 193.8 1036.15 181.1 1026.95 164.9C1017.95 148.7 1013.45 130.2 1013.45 109.4C1013.45 88.6 1017.95 70.1 1026.95 53.9C1036.15 37.5 1048.85 24.8 1065.05 15.8C1081.25 6.59999 1099.75 1.99999 1120.55 1.99999C1145.75 1.99999 1166.95 8.09999 1184.15 20.3C1201.55 32.5 1213.05 49.4 1218.65 71H1161.95ZM1301.97 45.5V88.1H1370.67V127.7H1301.97V173.9H1379.67V215H1250.67V4.39999H1379.67V45.5H1301.97Z"/>
</mask>
<path d="M83.8 217.1C68.4 217.1 54.6 214.6 42.4 209.6C30.2 204.6 20.4 197.2 13 187.4C5.8 177.6 2 165.8 1.6 152H56.2C57 159.8 59.7 165.8 64.3 170C68.9 174 74.9 176 82.3 176C89.9 176 95.9 174.3 100.3 170.9C104.7 167.3 106.9 162.4 106.9 156.2C106.9 151 105.1 146.7 101.5 143.3C98.1 139.9 93.8 137.1 88.6 134.9C83.6 132.7 76.4 130.2 67 127.4C53.4 123.2 42.3 119 33.7 114.8C25.1 110.6 17.7 104.4 11.5 96.2C5.3 88 2.2 77.3 2.2 64.1C2.2 44.5 9.3 29.2 23.5 18.2C37.7 7 56.2 1.4 79 1.4C102.2 1.4 120.9 7 135.1 18.2C149.3 29.2 156.9 44.6 157.9 64.4H102.4C102 57.6 99.5 52.3 94.9 48.5C90.3 44.5 84.4 42.5 77.2 42.5C71 42.5 66 44.2 62.2 47.6C58.4 50.8 56.5 55.5 56.5 61.7C56.5 68.5 59.7 73.8 66.1 77.6C72.5 81.4 82.5 85.5 96.1 89.9C109.7 94.5 120.7 98.9 129.1 103.1C137.7 107.3 145.1 113.4 151.3 121.4C157.5 129.4 160.6 139.7 160.6 152.3C160.6 164.3 157.5 175.2 151.3 185C145.3 194.8 136.5 202.6 124.9 208.4C113.3 214.2 99.6 217.1 83.8 217.1ZM343.67 4.39999V45.5H287.87V215H236.57V45.5H180.77V4.39999H343.67ZM469.016 217.1C449.216 217.1 431.016 212.5 414.416 203.3C398.016 194.1 384.916 181.3 375.116 164.9C365.516 148.3 360.716 129.7 360.716 109.1C360.716 88.5 365.516 70 375.116 53.6C384.916 37.2 398.016 24.4 414.416 15.2C431.016 6 449.216 1.4 469.016 1.4C488.816 1.4 506.916 6 523.316 15.2C539.916 24.4 552.916 37.2 562.316 53.6C571.916 70 576.716 88.5 576.716 109.1C576.716 129.7 571.916 148.3 562.316 164.9C552.716 181.3 539.716 194.1 523.316 203.3C506.916 212.5 488.816 217.1 469.016 217.1ZM469.016 170.3C485.816 170.3 499.216 164.7 509.216 153.5C519.416 142.3 524.516 127.5 524.516 109.1C524.516 90.5 519.416 75.7 509.216 64.7C499.216 53.5 485.816 47.9 469.016 47.9C452.016 47.9 438.416 53.4 428.216 64.4C418.216 75.4 413.216 90.3 413.216 109.1C413.216 127.7 418.216 142.6 428.216 153.8C438.416 164.8 452.016 170.3 469.016 170.3ZM712.656 215L668.856 135.5H656.556V215H605.256V4.39999H691.356C707.956 4.39999 722.056 7.29999 733.656 13.1C745.456 18.9 754.256 26.9 760.056 37.1C765.856 47.1 768.756 58.3 768.756 70.7C768.756 84.7 764.756 97.2 756.756 108.2C748.956 119.2 737.356 127 721.956 131.6L770.556 215H712.656ZM656.556 99.2H688.356C697.756 99.2 704.756 96.9 709.356 92.3C714.156 87.7 716.556 81.2 716.556 72.8C716.556 64.8 714.156 58.5 709.356 53.9C704.756 49.3 697.756 47 688.356 47H656.556V99.2ZM932.059 177.8H853.459L840.859 215H787.159L863.359 4.39999H922.759L998.959 215H944.659L932.059 177.8ZM918.859 138.2L892.759 61.1L866.959 138.2H918.859ZM1161.95 71C1158.15 64 1152.65 58.7 1145.45 55.1C1138.45 51.3 1130.15 49.4 1120.55 49.4C1103.95 49.4 1090.65 54.9 1080.65 65.9C1070.65 76.7 1065.65 91.2 1065.65 109.4C1065.65 128.8 1070.85 144 1081.25 155C1091.85 165.8 1106.35 171.2 1124.75 171.2C1137.35 171.2 1147.95 168 1156.55 161.6C1165.35 155.2 1171.75 146 1175.75 134H1110.65V96.2H1222.25V143.9C1218.45 156.7 1211.95 168.6 1202.75 179.6C1193.75 190.6 1182.25 199.5 1168.25 206.3C1154.25 213.1 1138.45 216.5 1120.85 216.5C1100.05 216.5 1081.45 212 1065.05 203C1048.85 193.8 1036.15 181.1 1026.95 164.9C1017.95 148.7 1013.45 130.2 1013.45 109.4C1013.45 88.6 1017.95 70.1 1026.95 53.9C1036.15 37.5 1048.85 24.8 1065.05 15.8C1081.25 6.59999 1099.75 1.99999 1120.55 1.99999C1145.75 1.99999 1166.95 8.09999 1184.15 20.3C1201.55 32.5 1213.05 49.4 1218.65 71H1161.95ZM1301.97 45.5V88.1H1370.67V127.7H1301.97V173.9H1379.67V215H1250.67V4.39999H1379.67V45.5H1301.97Z" fill="#041421"/>
<path d="M42.4 209.6L42.0208 210.525L42.4 209.6ZM13 187.4L12.194 187.992L12.202 188.003L13 187.4ZM1.6 152V151H0.570596L0.600421 152.029L1.6 152ZM56.2 152L57.1948 151.898L57.1027 151H56.2V152ZM64.3 170L63.6257 170.738L63.6347 170.747L63.6438 170.755L64.3 170ZM100.3 170.9L100.911 171.691L100.922 171.683L100.933 171.674L100.3 170.9ZM101.5 143.3L100.793 144.007L100.803 144.017L100.813 144.027L101.5 143.3ZM88.6 134.9L88.1973 135.815L88.2038 135.818L88.2104 135.821L88.6 134.9ZM67 127.4L66.7049 128.356L66.7145 128.358L67 127.4ZM11.5 96.2L12.2977 95.5969L11.5 96.2ZM23.5 18.2L24.1124 18.9906L24.1193 18.9852L23.5 18.2ZM135.1 18.2L134.481 18.9852L134.488 18.9905L135.1 18.2ZM157.9 64.4V65.4H158.952L158.899 64.3495L157.9 64.4ZM102.4 64.4L101.402 64.4587L101.457 65.4H102.4V64.4ZM94.9 48.5L94.2438 49.2546L94.2534 49.2629L94.2631 49.271L94.9 48.5ZM62.2 47.6L62.8441 48.3649L62.8556 48.3552L62.8668 48.3452L62.2 47.6ZM66.1 77.6L66.6105 76.7401V76.7401L66.1 77.6ZM96.1 89.9L96.4204 88.9526L96.4078 88.9485L96.1 89.9ZM129.1 103.1L128.653 103.994L128.661 103.999L129.1 103.1ZM151.3 121.4L150.51 122.013L151.3 121.4ZM151.3 185L150.455 184.465L150.451 184.472L150.447 184.478L151.3 185ZM124.9 208.4L124.453 207.506L124.9 208.4ZM83.8 216.1C68.5085 216.1 54.8404 213.618 42.7792 208.675L42.0208 210.525C54.3596 215.582 68.2915 218.1 83.8 218.1V216.1ZM42.7792 208.675C30.7326 203.738 21.0819 196.444 13.798 186.797L12.202 188.003C19.7181 197.956 29.6674 205.462 42.0208 210.525L42.7792 208.675ZM13.8059 186.808C6.74195 177.193 2.99452 165.596 2.59958 151.971L0.600421 152.029C1.00548 166.004 4.85805 178.007 12.1941 187.992L13.8059 186.808ZM1.6 153H56.2V151H1.6V153ZM55.2052 152.102C56.0236 160.081 58.801 166.333 63.6257 170.738L64.9743 169.262C60.599 165.267 57.9764 159.519 57.1948 151.898L55.2052 152.102ZM63.6438 170.755C68.4627 174.945 74.7127 177 82.3 177V175C75.0873 175 69.3373 173.055 64.9562 169.245L63.6438 170.755ZM82.3 177C90.0411 177 96.282 175.269 100.911 171.691L99.6886 170.109C95.518 173.331 89.7589 175 82.3 175V177ZM100.933 171.674C105.588 167.865 107.9 162.669 107.9 156.2H105.9C105.9 162.131 103.812 166.735 99.6668 170.126L100.933 171.674ZM107.9 156.2C107.9 150.74 105.998 146.172 102.187 142.573L100.813 144.027C104.202 147.228 105.9 151.26 105.9 156.2H107.9ZM102.207 142.593C98.7016 139.087 94.2879 136.221 88.9896 133.979L88.2104 135.821C93.3121 137.979 97.4984 140.713 100.793 144.007L102.207 142.593ZM89.0027 133.985C83.9459 131.76 76.6994 129.246 67.2855 126.442L66.7145 128.358C76.1006 131.154 83.2541 133.64 88.1973 135.815L89.0027 133.985ZM67.2951 126.445C53.7231 122.253 42.676 118.071 34.1388 113.901L33.2612 115.699C41.924 119.929 53.0769 124.147 66.7049 128.355L67.2951 126.445ZM34.1388 113.901C25.6903 109.775 18.4101 103.681 12.2977 95.5969L10.7023 96.8031C16.9899 105.119 24.5097 111.425 33.2612 115.699L34.1388 113.901ZM12.2977 95.5969C6.26212 87.6144 3.2 77.1446 3.2 64.1H1.2C1.2 77.4554 4.33788 88.3856 10.7023 96.8031L12.2977 95.5969ZM3.2 64.1C3.2 44.7768 10.1814 29.7821 24.1124 18.9905L22.8876 17.4094C8.41856 28.6179 1.2 44.2231 1.2 64.1H3.2ZM24.1193 18.9852C38.1011 7.95724 56.365 2.39999 79 2.39999V0.399994C56.035 0.399994 37.2989 6.04276 22.8807 17.4148L24.1193 18.9852ZM79 2.39999C102.04 2.39999 120.502 7.95952 134.481 18.9852L135.719 17.4148C121.298 6.04047 102.36 0.399994 79 0.399994V2.39999ZM134.488 18.9905C148.431 29.7921 155.914 44.9077 156.901 64.4504L158.899 64.3495C157.886 44.2923 150.169 28.6079 135.712 17.4094L134.488 18.9905ZM157.9 63.4H102.4V65.4H157.9V63.4ZM103.398 64.3413C102.985 57.3072 100.382 51.7317 95.5369 47.729L94.2631 49.271C98.6177 52.8683 101.016 57.8928 101.402 64.4587L103.398 64.3413ZM95.5562 47.7454C90.7422 43.5594 84.5951 41.5 77.2 41.5V43.5C84.2049 43.5 89.8578 45.4406 94.2438 49.2546L95.5562 47.7454ZM77.2 41.5C70.8097 41.5 65.5542 43.257 61.5332 46.8548L62.8668 48.3452C66.4458 45.143 71.1904 43.5 77.2 43.5V41.5ZM61.5559 46.8351C57.4758 50.271 55.5 55.2845 55.5 61.7H57.5C57.5 55.7154 59.3242 51.329 62.8441 48.3649L61.5559 46.8351ZM55.5 61.7C55.5 68.8914 58.9207 74.5003 65.5895 78.4598L66.6105 76.7401C60.4793 73.0997 57.5 68.1086 57.5 61.7H55.5ZM65.5895 78.4598C72.0877 82.3182 82.1735 86.4454 95.7922 90.8514L96.4078 88.9485C82.8265 84.5546 72.9123 80.4818 66.6105 76.7401L65.5895 78.4598ZM95.7796 90.8473C109.356 95.4394 120.309 99.8226 128.653 103.994L129.547 102.206C121.091 97.9774 110.044 93.5606 96.4204 88.9527L95.7796 90.8473ZM128.661 103.999C137.116 108.128 144.398 114.126 150.51 122.013L152.09 120.787C145.802 112.674 138.284 106.472 129.539 102.201L128.661 103.999ZM150.51 122.013C156.543 129.798 159.6 139.866 159.6 152.3H161.6C161.6 139.534 158.457 129.002 152.09 120.787L150.51 122.013ZM159.6 152.3C159.6 164.118 156.55 174.831 150.455 184.465L152.145 185.535C158.45 175.569 161.6 164.482 161.6 152.3H159.6ZM150.447 184.478C144.557 194.098 135.908 201.778 124.453 207.506L125.347 209.294C137.092 203.422 146.043 195.502 152.153 185.522L150.447 184.478ZM124.453 207.506C113.019 213.223 99.4781 216.1 83.8 216.1V218.1C99.7219 218.1 113.581 215.177 125.347 209.294L124.453 207.506ZM343.67 4.39999H344.67V3.39999H343.67V4.39999ZM343.67 45.5V46.5H344.67V45.5H343.67ZM287.87 45.5V44.5H286.87V45.5H287.87ZM287.87 215V216H288.87V215H287.87ZM236.57 215H235.57V216H236.57V215ZM236.57 45.5H237.57V44.5H236.57V45.5ZM180.77 45.5H179.77V46.5H180.77V45.5ZM180.77 4.39999V3.39999H179.77V4.39999H180.77ZM342.67 4.39999V45.5H344.67V4.39999H342.67ZM343.67 44.5H287.87V46.5H343.67V44.5ZM286.87 45.5V215H288.87V45.5H286.87ZM287.87 214H236.57V216H287.87V214ZM237.57 215V45.5H235.57V215H237.57ZM236.57 44.5H180.77V46.5H236.57V44.5ZM181.77 45.5V4.39999H179.77V45.5H181.77ZM180.77 5.39999H343.67V3.39999H180.77V5.39999ZM414.416 203.3L413.927 204.172L413.932 204.175L414.416 203.3ZM375.116 164.9L374.251 165.401L374.254 165.407L374.258 165.413L375.116 164.9ZM375.116 53.6L374.258 53.087L374.253 53.0948L375.116 53.6ZM414.416 15.2L413.932 14.3253L413.927 14.3279L414.416 15.2ZM523.316 15.2L522.827 16.0722L522.832 16.0746L523.316 15.2ZM562.316 53.6L561.449 54.0973L561.453 54.1052L562.316 53.6ZM562.316 164.9L563.179 165.405L563.182 165.401L562.316 164.9ZM523.316 203.3L523.806 204.172L523.316 203.3ZM509.216 153.5L508.477 152.827L508.47 152.834L509.216 153.5ZM509.216 64.7L508.47 65.366L508.477 65.373L508.483 65.3799L509.216 64.7ZM428.216 64.4L427.483 63.72L427.476 63.7273L428.216 64.4ZM428.216 153.8L427.47 154.466L427.477 154.473L427.483 154.48L428.216 153.8ZM469.016 216.1C449.378 216.1 431.346 211.54 414.901 202.425L413.932 204.175C430.687 213.46 449.054 218.1 469.016 218.1V216.1ZM414.906 202.428C398.66 193.315 385.687 180.64 375.975 164.387L374.258 165.413C384.146 181.96 397.372 194.885 413.927 204.172L414.906 202.428ZM375.982 164.399C366.477 147.963 361.716 129.538 361.716 109.1H359.716C359.716 129.862 364.556 148.637 374.251 165.401L375.982 164.399ZM361.716 109.1C361.716 88.6622 366.477 70.3392 375.979 54.1052L374.253 53.0948C364.556 69.6608 359.716 88.3378 359.716 109.1H361.716ZM375.975 54.1129C385.687 37.8604 398.66 25.1853 414.906 16.0721L413.927 14.3279C397.372 23.6147 384.146 36.5396 374.258 53.087L375.975 54.1129ZM414.901 16.0746C431.346 6.96048 449.378 2.39999 469.016 2.39999V0.399994C449.054 0.399994 430.687 5.03951 413.932 14.3253L414.901 16.0746ZM469.016 2.39999C488.654 2.39999 506.585 6.96046 522.827 16.0721L523.806 14.3279C507.248 5.03954 488.978 0.399994 469.016 0.399994V2.39999ZM522.832 16.0746C539.273 25.1865 552.14 37.8563 561.449 54.0973L563.184 53.1027C553.693 36.5437 540.56 23.6135 523.801 14.3253L522.832 16.0746ZM561.453 54.1052C570.956 70.3392 575.716 88.6622 575.716 109.1H577.716C577.716 88.3378 572.877 69.6608 563.179 53.0948L561.453 54.1052ZM575.716 109.1C575.716 129.538 570.956 147.963 561.451 164.399L563.182 165.401C572.877 148.637 577.716 129.862 577.716 109.1H575.716ZM561.453 164.395C551.942 180.643 539.07 193.316 522.827 202.428L523.806 204.172C540.362 194.884 553.491 181.957 563.179 165.405L561.453 164.395ZM522.827 202.428C506.585 211.54 488.654 216.1 469.016 216.1V218.1C488.978 218.1 507.248 213.46 523.806 204.172L522.827 202.428ZM469.016 171.3C486.064 171.3 499.749 165.605 509.962 154.166L508.47 152.834C498.684 163.795 485.569 169.3 469.016 169.3V171.3ZM509.956 154.173C520.358 142.751 525.516 127.693 525.516 109.1H523.516C523.516 127.307 518.475 141.849 508.477 152.827L509.956 154.173ZM525.516 109.1C525.516 90.3112 520.36 75.2467 509.95 64.0201L508.483 65.3799C518.473 76.1533 523.516 90.6888 523.516 109.1H525.516ZM509.962 64.034C499.749 52.5949 486.064 46.9 469.016 46.9V48.9C485.569 48.9 498.684 54.4051 508.47 65.366L509.962 64.034ZM469.016 46.9C451.779 46.9 437.898 52.4878 427.483 63.72L428.95 65.0799C438.934 54.3122 452.254 48.9 469.016 48.9V46.9ZM427.476 63.7273C417.268 74.9563 412.216 90.1195 412.216 109.1H414.216C414.216 90.4805 419.165 75.8436 428.956 65.0727L427.476 63.7273ZM412.216 109.1C412.216 127.885 417.27 143.042 427.47 154.466L428.962 153.134C419.163 142.158 414.216 127.515 414.216 109.1H412.216ZM427.483 154.48C437.898 165.712 451.779 171.3 469.016 171.3V169.3C452.254 169.3 438.934 163.888 428.95 153.12L427.483 154.48ZM712.656 215L711.78 215.483L712.065 216H712.656V215ZM668.856 135.5L669.732 135.017L669.447 134.5H668.856V135.5ZM656.556 135.5V134.5H655.556V135.5H656.556ZM656.556 215V216H657.556V215H656.556ZM605.256 215H604.256V216H605.256V215ZM605.256 4.39999V3.39999H604.256V4.39999H605.256ZM733.656 13.1L733.209 13.9944L733.215 13.9974L733.656 13.1ZM760.056 37.1L759.187 37.5943L759.191 37.6017L760.056 37.1ZM756.756 108.2L755.947 107.612L755.941 107.622L756.756 108.2ZM721.956 131.6L721.67 130.642L720.452 131.006L721.092 132.103L721.956 131.6ZM770.556 215V216H772.296L771.42 214.497L770.556 215ZM656.556 99.2H655.556V100.2H656.556V99.2ZM709.356 92.3L708.664 91.578L708.657 91.5854L708.649 91.5929L709.356 92.3ZM709.356 53.9L708.649 54.6071L708.657 54.6146L708.664 54.622L709.356 53.9ZM656.556 47V46H655.556V47H656.556ZM713.532 214.517L669.732 135.017L667.98 135.983L711.78 215.483L713.532 214.517ZM668.856 134.5H656.556V136.5H668.856V134.5ZM655.556 135.5V215H657.556V135.5H655.556ZM656.556 214H605.256V216H656.556V214ZM606.256 215V4.39999H604.256V215H606.256ZM605.256 5.39999H691.356V3.39999H605.256V5.39999ZM691.356 5.39999C707.843 5.39999 721.781 8.28051 733.209 13.9944L734.103 12.2056C722.331 6.31947 708.069 3.39999 691.356 3.39999V5.39999ZM733.215 13.9974C744.858 19.7201 753.498 27.5892 759.187 37.5943L760.926 36.6057C755.015 26.2108 746.055 18.0799 734.097 12.2025L733.215 13.9974ZM759.191 37.6017C764.896 47.4382 767.756 58.463 767.756 70.7H769.756C769.756 58.137 766.816 46.7618 760.921 36.5983L759.191 37.6017ZM767.756 70.7C767.756 84.4953 763.819 96.788 755.948 107.612L757.565 108.788C765.693 97.612 769.756 84.9047 769.756 70.7H767.756ZM755.941 107.622C748.293 118.406 736.899 126.093 721.67 130.642L722.242 132.558C737.814 127.907 749.619 119.994 757.572 108.778L755.941 107.622ZM721.092 132.103L769.692 215.503L771.42 214.497L722.82 131.097L721.092 132.103ZM770.556 214H712.656V216H770.556V214ZM656.556 100.2H688.356V98.2H656.556V100.2ZM688.356 100.2C697.903 100.2 705.206 97.8644 710.063 93.0071L708.649 91.5929C704.306 95.9356 697.609 98.2 688.356 98.2V100.2ZM710.048 93.022C715.094 88.1865 717.556 81.3965 717.556 72.8H715.556C715.556 81.0035 713.219 87.2135 708.664 91.578L710.048 93.022ZM717.556 72.8C717.556 64.5871 715.084 58.0043 710.048 53.178L708.664 54.622C713.228 58.9957 715.556 65.0129 715.556 72.8H717.556ZM710.063 53.1929C705.206 48.3356 697.903 46 688.356 46V48C697.609 48 704.306 50.2644 708.649 54.6071L710.063 53.1929ZM688.356 46H656.556V48H688.356V46ZM655.556 47V99.2H657.556V47H655.556ZM932.059 177.8L933.007 177.479L932.776 176.8H932.059V177.8ZM853.459 177.8V176.8H852.742L852.512 177.479L853.459 177.8ZM840.859 215V216H841.576L841.807 215.321L840.859 215ZM787.159 215L786.219 214.66L785.734 216H787.159V215ZM863.359 4.39999V3.39999H862.658L862.419 4.05975L863.359 4.39999ZM922.759 4.39999L923.7 4.05975L923.461 3.39999H922.759V4.39999ZM998.959 215V216H1000.38L999.9 214.66L998.959 215ZM944.659 215L943.712 215.321L943.942 216H944.659V215ZM918.859 138.2V139.2H920.254L919.807 137.879L918.859 138.2ZM892.759 61.1L893.707 60.7793L892.754 57.9651L891.811 60.7827L892.759 61.1ZM866.959 138.2L866.011 137.883L865.57 139.2H866.959V138.2ZM932.059 176.8H853.459V178.8H932.059V176.8ZM852.512 177.479L839.912 214.679L841.807 215.321L854.407 178.121L852.512 177.479ZM840.859 214H787.159V216H840.859V214ZM788.1 215.34L864.3 4.74023L862.419 4.05975L786.219 214.66L788.1 215.34ZM863.359 5.39999H922.759V3.39999H863.359V5.39999ZM921.819 4.74023L998.019 215.34L999.9 214.66L923.7 4.05975L921.819 4.74023ZM998.959 214H944.659V216H998.959V214ZM945.607 214.679L933.007 177.479L931.112 178.121L943.712 215.321L945.607 214.679ZM919.807 137.879L893.707 60.7793L891.812 61.4206L917.912 138.521L919.807 137.879ZM891.811 60.7827L866.011 137.883L867.908 138.517L893.708 61.4173L891.811 60.7827ZM866.959 139.2H918.859V137.2H866.959V139.2ZM1161.95 71L1161.07 71.4771L1161.36 72H1161.95V71ZM1145.45 55.1L1144.97 55.9788L1144.99 55.9869L1145 55.9944L1145.45 55.1ZM1080.65 65.9L1081.38 66.5794L1081.39 66.5727L1080.65 65.9ZM1081.25 155L1080.52 155.687L1080.53 155.694L1080.54 155.7L1081.25 155ZM1156.55 161.6L1155.96 160.791L1155.95 160.798L1156.55 161.6ZM1175.75 134L1176.7 134.316L1177.14 133H1175.75V134ZM1110.65 134H1109.65V135H1110.65V134ZM1110.65 96.2V95.2H1109.65V96.2H1110.65ZM1222.25 96.2H1223.25V95.2H1222.25V96.2ZM1222.25 143.9L1223.21 144.185L1223.25 144.045V143.9H1222.25ZM1202.75 179.6L1201.98 178.958L1201.98 178.967L1202.75 179.6ZM1168.25 206.3L1167.81 205.4L1168.25 206.3ZM1065.05 203L1064.56 203.87L1064.56 203.873L1064.57 203.877L1065.05 203ZM1026.95 164.9L1026.08 165.386L1026.08 165.394L1026.95 164.9ZM1026.95 53.9L1026.08 53.4108L1026.08 53.4144L1026.95 53.9ZM1065.05 15.8L1065.54 16.6742L1065.54 16.6696L1065.05 15.8ZM1184.15 20.3L1183.57 21.1156L1183.58 21.1188L1184.15 20.3ZM1218.65 71V72H1219.94L1219.62 70.749L1218.65 71ZM1162.83 70.5229C1158.93 63.3408 1153.28 57.8961 1145.9 54.2056L1145 55.9944C1152.02 59.5038 1157.37 64.6592 1161.07 71.4771L1162.83 70.5229ZM1145.93 54.2211C1138.75 50.3268 1130.28 48.4 1120.55 48.4V50.4C1130.02 50.4 1138.15 52.2731 1144.97 55.9788L1145.93 54.2211ZM1120.55 48.4C1103.71 48.4 1090.12 53.9933 1079.91 65.2273L1081.39 66.5727C1091.18 55.8067 1104.2 50.4 1120.55 50.4V48.4ZM1079.92 65.2206C1069.71 76.2466 1064.65 91.0105 1064.65 109.4H1066.65C1066.65 91.3895 1071.59 77.1534 1081.38 66.5794L1079.92 65.2206ZM1064.65 109.4C1064.65 128.981 1069.9 144.453 1080.52 155.687L1081.98 154.313C1071.8 143.547 1066.65 128.619 1066.65 109.4H1064.65ZM1080.54 155.7C1091.36 166.732 1106.14 172.2 1124.75 172.2V170.2C1106.56 170.2 1092.34 164.868 1081.96 154.3L1080.54 155.7ZM1124.75 172.2C1137.53 172.2 1148.35 168.952 1157.15 162.402L1155.95 160.798C1147.56 167.048 1137.17 170.2 1124.75 170.2V172.2ZM1157.14 162.409C1166.13 155.867 1172.64 146.481 1176.7 134.316L1174.8 133.684C1170.86 145.519 1164.57 154.533 1155.96 160.791L1157.14 162.409ZM1175.75 133H1110.65V135H1175.75V133ZM1111.65 134V96.2H1109.65V134H1111.65ZM1110.65 97.2H1222.25V95.2H1110.65V97.2ZM1221.25 96.2V143.9H1223.25V96.2H1221.25ZM1221.29 143.615C1217.53 156.275 1211.1 168.055 1201.98 178.958L1203.52 180.242C1212.8 169.145 1219.37 157.125 1223.21 144.185L1221.29 143.615ZM1201.98 178.967C1193.08 189.844 1181.7 198.658 1167.81 205.4L1168.69 207.199C1182.81 200.342 1194.42 191.356 1203.52 180.233L1201.98 178.967ZM1167.81 205.4C1153.97 212.126 1138.32 215.5 1120.85 215.5V217.5C1138.58 217.5 1154.53 214.074 1168.69 207.199L1167.81 205.4ZM1120.85 215.5C1100.2 215.5 1081.77 211.034 1065.53 202.123L1064.57 203.877C1081.13 212.966 1099.9 217.5 1120.85 217.5V215.5ZM1065.54 202.13C1049.5 193.02 1036.93 180.449 1027.82 164.406L1026.08 165.394C1035.37 181.751 1048.2 194.581 1064.56 203.87L1065.54 202.13ZM1027.82 164.414C1018.92 148.38 1014.45 130.051 1014.45 109.4H1012.45C1012.45 130.349 1016.98 149.02 1026.08 165.386L1027.82 164.414ZM1014.45 109.4C1014.45 88.7488 1018.92 70.4196 1027.82 54.3856L1026.08 53.4144C1016.98 69.7804 1012.45 88.4512 1012.45 109.4H1014.45ZM1027.82 54.3893C1036.93 38.1484 1049.5 25.5828 1065.54 16.6741L1064.57 14.9258C1048.2 24.0172 1035.37 36.8516 1026.08 53.4108L1027.82 54.3893ZM1065.54 16.6696C1081.58 7.56467 1099.9 2.99998 1120.55 2.99998V0.999985C1099.6 0.999985 1080.92 5.63531 1064.56 14.9304L1065.54 16.6696ZM1120.55 2.99998C1145.58 2.99998 1166.57 9.05746 1183.57 21.1156L1184.73 19.4843C1167.33 7.14252 1145.92 0.999985 1120.55 0.999985V2.99998ZM1183.58 21.1188C1200.77 33.1751 1212.14 49.8685 1217.68 71.251L1219.62 70.749C1213.96 48.9315 1202.33 31.8249 1184.72 19.4812L1183.58 21.1188ZM1218.65 70H1161.95V72H1218.65V70ZM1301.97 45.5V44.5H1300.97V45.5H1301.97ZM1301.97 88.1H1300.97V89.1H1301.97V88.1ZM1370.67 88.1H1371.67V87.1H1370.67V88.1ZM1370.67 127.7V128.7H1371.67V127.7H1370.67ZM1301.97 127.7V126.7H1300.97V127.7H1301.97ZM1301.97 173.9H1300.97V174.9H1301.97V173.9ZM1379.67 173.9H1380.67V172.9H1379.67V173.9ZM1379.67 215V216H1380.67V215H1379.67ZM1250.67 215H1249.67V216H1250.67V215ZM1250.67 4.39999V3.39999H1249.67V4.39999H1250.67ZM1379.67 4.39999H1380.67V3.39999H1379.67V4.39999ZM1379.67 45.5V46.5H1380.67V45.5H1379.67ZM1300.97 45.5V88.1H1302.97V45.5H1300.97ZM1301.97 89.1H1370.67V87.1H1301.97V89.1ZM1369.67 88.1V127.7H1371.67V88.1H1369.67ZM1370.67 126.7H1301.97V128.7H1370.67V126.7ZM1300.97 127.7V173.9H1302.97V127.7H1300.97ZM1301.97 174.9H1379.67V172.9H1301.97V174.9ZM1378.67 173.9V215H1380.67V173.9H1378.67ZM1379.67 214H1250.67V216H1379.67V214ZM1251.67 215V4.39999H1249.67V215H1251.67ZM1250.67 5.39999H1379.67V3.39999H1250.67V5.39999ZM1378.67 4.39999V45.5H1380.67V4.39999H1378.67ZM1379.67 44.5H1301.97V46.5H1379.67V44.5Z" fill="white" mask="url(#path-1-outside-1_3_59)"/>
</g>
</svg>
